<svg height="512pt" viewBox="-58 0 512 512" width="512pt" xmlns="http://www.w3.org/2000/svg" xmlns:xlink="http://www.w3.org/1999/xlink"><linearGradient id="a" gradientUnits="userSpaceOnUse" x1="198.471188" x2="198.471188" y1="0" y2="512"><stop offset="0" stop-color="#2af598"/><stop offset="1" stop-color="#009efd"/></linearGradient><path d="m379.417969 192.679688c-10.835938-10.109376-25.695313-15.679688-41.839844-15.679688-10.558594 0-20.550781 3.171875-29.117187 8.621094-10.453126-13.164063-26.519532-21.621094-44.519532-21.621094-12.746094 0-24.53125 4.238281-34.039062 11.390625-10.292969-10.128906-24.410156-16.390625-39.960938-16.390625-5.917968 0-11.628906.90625-17 2.589844v-104.589844c0-31.429688-25.566406-57-57-57-31.429687 0-57 25.570312-57 57v201.585938c-3.863281 3.339843-7.335937 7.191406-10.292968 11.507812l-.617188.902344-39.480469 73.738281c-11.976562 21.152344-11.371093 43.671875 1.804688 66.941406 4.945312 9.445313 29.574219 54.792969 59.515625 80.621094 14.730468 12.707031 33.558594 19.703125 53.019531 19.703125h160.683594c62.511719 0 113.367187-50.5 113.367187-112.574219v-165.210937c0-16.238282-6.222656-30.988282-17.523437-41.535156zm-132.476563 28.742187c0-9.605469 7.628906-17.421875 17-17.421875 9.375 0 17 7.816406 17 17.421875v35.578125c0 9.375-7.625 17-17 17-9.371094 0-17-7.625-17-17zm-57-22.421875c9.375 0 17 7.625 17 17v32.085938c-6.921875-2.65625-14.3125-4.085938-21.792968-4.085938h-12.207032v-28c0-9.375 7.628906-17 17-17zm-74-159c9.375 0 17 7.625 17 17v187h-34v-187c0-9.375 7.628906-17 17-17zm-105.5 371.828125c.035156.0625.074219.128906.109375.191406-.015625-.023437-.054687-.089843-.109375-.191406zm273.132813 60.171875h-160.683594c-9.871094 0-19.421875-3.550781-26.894531-9.992188-20.457032-17.652343-41.242188-51.71875-50.296875-69.066406-.25-.476562-.402344-.738281-.417969-.769531-7.398438-12.945313-6.191406-20.257813-1.851562-27.855469l38.746093-72.351562c3.769531-5.003906 9.675781-7.964844 15.972657-7.964844h87c5.605468 0 11.097656 2.320312 15.070312 6.371094 3.785156 3.859375 5.816406 8.839844 5.71875 14.027344-.210938 10.808593-9.179688 19.601562-20 19.601562h-72.890625l-21.875 41.761719 35.433594 18.5625 10.644531-20.324219h48.6875c15.824219 0 30.753906-6.105469 42.042969-17.191406 9.886719-9.710938 16.003906-22.28125 17.5625-35.875 5.777343 1.976562 11.960937 3.066406 18.402343 3.066406 14.261719 0 27.304688-5.277344 37.3125-13.964844 10.144532 8.695313 23.304688 13.964844 37.683594 13.964844 6.285156 0 12.332032-1.015625 18-2.875v88.300781c0 40.015625-32.910156 72.574219-73.367187 72.574219zm55.367187-198c-9.921875 0-18-8.074219-18-18v-20.429688c0-8.765624 7.117188-18.570312 16.636719-18.570312 9.363281 0 19.363281 4.523438 19.363281 17.214844v21.785156c0 9.925781-8.074218 18-18 18zm0 0" fill="url(#a)"/></svg>